<svg width="18" height="16" viewBox="0 0 18 16" fill="none" xmlns="http://www.w3.org/2000/svg">
<path d="M9.08333 13.2917L9 13.375L8.90833 13.2917C4.95 9.7 2.33333 7.325 2.33333 4.91667C2.33333 3.25 3.58333 2 5.25 2C6.53333 2 7.78333 2.83334 8.225 3.96667H9.775C10.2167 2.83334 11.4667 2 12.75 2C14.4167 2 15.6667 3.25 15.6667 4.91667C15.6667 7.325 13.05 9.7 9.08333 13.2917ZM12.75 0.333336C11.3 0.333336 9.90833 1.00834 9 2.06667C8.09167 1.00834 6.7 0.333336 5.25 0.333336C2.68333 0.333336 0.666666 2.34167 0.666666 4.91667C0.666666 8.05834 3.5 10.6333 7.79167 14.525L9 15.625L10.2083 14.525C14.5 10.6333 17.3333 8.05834 17.3333 4.91667C17.3333 2.34167 15.3167 0.333336 12.75 0.333336Z" fill="#11B0C8"/>
</svg>
